<svg id="Layer_1" data-name="Layer 1" xmlns="http://www.w3.org/2000/svg" viewBox="0 0 333.18 870.07"><defs><style>.cls-1{fill:#8fb5aa;}.cls-10,.cls-11,.cls-12,.cls-13,.cls-14,.cls-15,.cls-2{fill:none;stroke-linecap:round;}.cls-2{stroke:#c1747a;}.cls-15,.cls-2{stroke-miterlimit:10;stroke-width:10.13px;}.cls-3{fill:#c1747a;}.cls-4{fill:#f8f9f8;}.cls-5{fill:#dce5e1;}.cls-6{fill:#eaefed;}.cls-7{fill:#d2d8d5;}.cls-8{fill:#c7595f;}.cls-9{fill:#be3d46;}.cls-10,.cls-11,.cls-12{stroke:#d2d8d5;}.cls-10,.cls-11,.cls-12,.cls-13,.cls-14{stroke-linejoin:round;}.cls-10,.cls-14{stroke-width:5.07px;}.cls-11,.cls-13{stroke-width:1.84px;}.cls-12{stroke-width:5.51px;}.cls-13,.cls-14{stroke:#be3d46;}.cls-15{stroke:#eaefed;}.cls-16{fill:#7a8282;}.cls-17{fill:#637070;}</style></defs><title>astatine</title><rect class="cls-1" x="184.18" y="694" width="11" height="16"/><line class="cls-2" x1="168.53" y1="740.88" x2="168.53" y2="865"/><rect class="cls-3" x="172.55" y="10.13" width="104.9" height="32.78" rx="16.39" ry="16.39"/><rect class="cls-3" x="172.55" y="42.91" width="29.5" height="134.41"/><rect class="cls-3" x="172.55" y="186.12" width="93.03" height="514.23" rx="24.63" ry="24.63"/><rect class="cls-3" x="172.94" y="177.47" width="160.24" height="32.78" rx="16.39" ry="16.39"/><rect class="cls-3" x="172.55" y="700.35" width="29.5" height="38"/><path class="cls-3" d="M591.38,808.35s-20.91-1.71-21.51,18.14-18.33-10.54-18.33-10.54l10.13-15.2h32.93Z" transform="translate(-367.82 -108)"/><rect class="cls-3" x="158.4" y="730.74" width="50.66" height="12.67" rx="6.33" ry="6.33"/><rect class="cls-4" x="54.09" width="208.16" height="32.78" rx="16.39" ry="16.39"/><rect class="cls-5" x="157.35" width="104.9" height="32.78" rx="16.39" ry="16.39"/><rect class="cls-5" x="157.35" width="16.39" height="32.78"/><rect class="cls-6" x="129.49" y="32.78" width="57.37" height="134.41"/><rect class="cls-7" x="157.35" y="32.78" width="29.5" height="134.41"/><rect class="cls-6" x="68.69" y="175.99" width="180.9" height="514.23" rx="24.62" ry="24.62"/><rect class="cls-7" x="157.35" y="175.99" width="93.03" height="514.23" rx="24.62" ry="24.62"/><rect class="cls-4" y="167.34" width="317.98" height="32.78" rx="16.39" ry="16.39"/><rect class="cls-5" x="157.74" y="167.34" width="160.24" height="32.78" rx="16.39" ry="16.39"/><rect class="cls-5" x="157.35" y="167.34" width="25.04" height="32.78"/><rect class="cls-8" x="87.47" y="333.04" width="144.39" height="339.44" rx="16.92" ry="16.92"/><rect class="cls-8" x="87.47" y="325.44" width="144.39" height="276.11"/><rect class="cls-7" x="157.35" y="200" width="44.11" height="490.21"/><rect class="cls-9" x="158.4" y="333.04" width="73.46" height="339.44" rx="16.97" ry="16.97"/><rect class="cls-9" x="157.35" y="333.04" width="23.84" height="339.44"/><line class="cls-10" x1="89.87" y1="224.98" x2="140.66" y2="224.98"/><line class="cls-11" x1="89.14" y1="246.1" x2="107.5" y2="246.1"/><line class="cls-11" x1="89.14" y1="268.14" x2="107.5" y2="268.14"/><line class="cls-11" x1="89.14" y1="290.18" x2="107.5" y2="290.18"/><line class="cls-11" x1="89.14" y1="312.22" x2="107.5" y2="312.22"/><line class="cls-12" x1="89.87" y1="335.17" x2="108.24" y2="335.17"/><line class="cls-13" x1="89.14" y1="358.13" x2="107.5" y2="358.13"/><line class="cls-13" x1="89.14" y1="380.17" x2="107.5" y2="380.17"/><line class="cls-13" x1="89.14" y1="402.21" x2="107.5" y2="402.21"/><line class="cls-13" x1="89.14" y1="424.25" x2="107.5" y2="424.25"/><line class="cls-14" x1="89.87" y1="446.28" x2="140.66" y2="446.28"/><line class="cls-13" x1="89.14" y1="468.32" x2="107.5" y2="468.32"/><line class="cls-13" x1="89.14" y1="490.36" x2="107.5" y2="490.36"/><line class="cls-13" x1="89.14" y1="512.4" x2="107.5" y2="512.4"/><line class="cls-13" x1="89.14" y1="534.44" x2="107.5" y2="534.44"/><line class="cls-14" x1="89.87" y1="555.56" x2="140.66" y2="555.56"/><line class="cls-13" x1="89.14" y1="578.51" x2="107.5" y2="578.51"/><line class="cls-13" x1="89.14" y1="600.55" x2="107.5" y2="600.55"/><line class="cls-13" x1="89.14" y1="622.59" x2="107.5" y2="622.59"/><line class="cls-13" x1="89.14" y1="644.63" x2="107.5" y2="644.63"/><rect class="cls-6" x="129.49" y="690.21" width="57.37" height="38"/><rect class="cls-7" x="157.35" y="690.21" width="29.5" height="38"/><path class="cls-6" d="M482.12,798.21s16.68-.77,15.19,14.81,16.24,5.45,16.24,5.45l-5.07-32.93-25.33,5.07Z" transform="translate(-367.82 -108)"/><path class="cls-7" d="M576.18,798.21s-20.91-1.71-21.51,18.14-18.33-10.54-18.33-10.54l10.13-15.2h32.93Z" transform="translate(-367.82 -108)"/><line class="cls-15" x1="158.4" y1="733.28" x2="158.4" y2="857.4"/><rect class="cls-16" x="122.93" y="720.61" width="70.93" height="12.67" rx="6.33" ry="6.33"/><rect class="cls-17" x="158.93" y="720.61" width="34.93" height="12.67" rx="6.33" ry="6.33"/><rect class="cls-9" x="158.4" y="325.44" width="73.46" height="258.38"/><rect class="cls-17" x="157.35" y="720.61" width="29.5" height="12.67"/><rect class="cls-16" x="77.34" y="317.32" width="164.65" height="25.78" rx="12.89" ry="12.89"/><rect class="cls-17" x="160.89" y="317.32" width="81.1" height="25.78" rx="12.89" ry="12.89"/><rect class="cls-17" x="157.24" y="317.32" width="68.49" height="25.78"/></svg>