<svg id="Layer_1" data-name="Layer 1" xmlns="http://www.w3.org/2000/svg" viewBox="0 0 186.37 836"><defs><style>.cls-1{fill:#70a098;}.cls-2{fill:#f8f9f8;}.cls-3{fill:#dce5e1;}.cls-4{fill:#c7595f;}.cls-5,.cls-6{fill:none;stroke:#c7595f;stroke-linecap:round;stroke-linejoin:round;}.cls-5{stroke-width:4px;}.cls-6{stroke-width:1.96px;}.cls-7{fill:#c6cec6;}.cls-8{fill:#be3d46;}</style></defs><title>barium</title><path class="cls-1" d="M646.69,826.67V202.32a47.24,47.24,0,0,0-94.48,0V827.09a83.84,83.84,0,1,0,94.48-.42Z" transform="translate(-497.23 -144)"/><path class="cls-2" d="M628,815.58V191.24a47.24,47.24,0,0,0-94.48,0V816a83.84,83.84,0,1,0,94.48-.42Z" transform="translate(-497.23 -144)"/><path class="cls-3" d="M628,815.58V191.24A47.24,47.24,0,0,0,580.78,144V968.91h.3A83.85,83.85,0,0,0,628,815.58Z" transform="translate(-497.23 -144)"/><circle class="cls-4" cx="83.03" cy="741.06" r="37.79"/><line class="cls-5" x1="38.45" y1="88.57" x2="62.07" y2="88.57"/><line class="cls-6" x1="38.45" y1="115.74" x2="54.77" y2="115.74"/><line class="cls-6" x1="38.45" y1="144.06" x2="54.77" y2="144.06"/><line class="cls-6" x1="38.45" y1="172.39" x2="54.77" y2="172.39"/><line class="cls-6" x1="38.45" y1="200.72" x2="54.77" y2="200.72"/><line class="cls-5" x1="38.45" y1="230.29" x2="62.07" y2="230.29"/><line class="cls-6" x1="38.45" y1="259.74" x2="54.77" y2="259.74"/><line class="cls-6" x1="38.45" y1="288.06" x2="54.77" y2="288.06"/><line class="cls-6" x1="38.45" y1="316.39" x2="54.77" y2="316.39"/><line class="cls-6" x1="38.45" y1="344.72" x2="54.77" y2="344.72"/><line class="cls-5" x1="38.45" y1="373.19" x2="62.07" y2="373.19"/><line class="cls-6" x1="38.45" y1="401.38" x2="54.77" y2="401.38"/><line class="cls-6" x1="38.45" y1="429.7" x2="54.77" y2="429.7"/><line class="cls-6" x1="38.45" y1="458.03" x2="54.77" y2="458.03"/><line class="cls-6" x1="38.45" y1="486.36" x2="54.77" y2="486.36"/><line class="cls-5" x1="38.45" y1="513.73" x2="62.07" y2="513.73"/><line class="cls-6" x1="38.45" y1="543.02" x2="54.77" y2="543.02"/><line class="cls-6" x1="38.45" y1="571.34" x2="54.77" y2="571.34"/><line class="cls-6" x1="38.45" y1="599.67" x2="54.77" y2="599.67"/><line class="cls-6" x1="38.45" y1="628" x2="54.77" y2="628"/><rect class="cls-7" x="73.92" y="37" width="17" height="335" rx="8.5" ry="8.5"/><rect class="cls-8" x="73.92" y="218" width="17" height="523" rx="8.5" ry="8.5"/><path class="cls-4" d="M580.64,362.06a8.09,8.09,0,0,0-1-.06,8.5,8.5,0,0,0-8.5,8.5v506a8.5,8.5,0,0,0,8.5,8.5,8.09,8.09,0,0,0,1-.06Z" transform="translate(-497.23 -144)"/><path class="cls-8" d="M580.26,847.27H580v75.57h.26a37.79,37.79,0,0,0,0-75.58Z" transform="translate(-497.23 -144)"/><path class="cls-8" d="M580,362V851h2V362.35A8.48,8.48,0,0,0,580,362Z" transform="translate(-497.23 -144)"/></svg>