<svg id="Layer_1" data-name="Layer 1" xmlns="http://www.w3.org/2000/svg" viewBox="0 0 103.04 170.95"><defs><style>.cls-1{fill:#8fb5aa;}.cls-2{fill:#eaefed;}.cls-3{fill:#d2d8d5;}.cls-4{fill:#f8f9f8;}.cls-5{fill:#dce5e1;}.cls-6{fill:#7a8282;}.cls-7{fill:#637070;}.cls-8{fill:#5a9693;}.cls-9{fill:#66a9a7;}.cls-10{fill:#c7595f;}</style></defs><title>disinfectant</title><path class="cls-1" d="M101.79,33.66H99.31V122h2.47c3.45,0,6.24-3.06,6.24-6.84V40.49C108,36.72,105.23,33.66,101.79,33.66Z" transform="translate(-45.39 -11.05)"/><path class="cls-1" d="M99.35,13.68h-.26V37.85h.26A8.67,8.67,0,0,0,108,29.19V22.35A8.67,8.67,0,0,0,99.35,13.68Z" transform="translate(-45.39 -11.05)"/><rect class="cls-1" x="53.7" y="16.82" width="8.94" height="9.99"/><rect class="cls-1" x="55.28" y="22.61" width="20.5" height="6.8" rx="3.4" ry="3.4"/><path class="cls-1" d="M95.41,119.35v6.57a3.94,3.94,0,1,0,7.89,0v-6.57Z" transform="translate(-45.39 -11.05)"/><rect class="cls-1" x="3.15" y="58.44" width="99.89" height="112.51" rx="14.19" ry="14.19"/><rect class="cls-1" x="53.1" y="58.44" width="49.94" height="112.51" rx="24.97" ry="24.97"/><rect class="cls-1" x="53.1" y="58.44" width="23.66" height="112.51"/><rect class="cls-1" x="36.8" y="35.31" width="32.6" height="39.96"/><path class="cls-1" d="M114.75,63.65s-.46,6.37,6.34,5.84l0,4.21H110.55v-10Z" transform="translate(-45.39 -11.05)"/><rect class="cls-1" x="52.88" y="31.63" width="22.3" height="6.8" rx="3.4" ry="3.4"/><rect class="cls-2" y="54.76" width="99.89" height="112.51" rx="14.23" ry="14.23"/><rect class="cls-3" x="49.94" y="54.76" width="49.94" height="112.51" rx="14.22" ry="14.22"/><rect class="cls-2" x="41.61" y="19.98" width="17.35" height="88.32" rx="8.67" ry="8.67"/><rect class="cls-3" x="49.94" y="54.76" width="23.66" height="112.51"/><rect class="cls-3" x="33.65" y="31.63" width="32.6" height="39.96"/><path class="cls-2" d="M79,60s.46,6.37-6.34,5.84l0,4.21H83.24V60Z" transform="translate(-45.39 -11.05)"/><path class="cls-3" d="M111.6,60s-.46,6.37,6.34,5.84l0,4.21H107.39V60Z" transform="translate(-45.39 -11.05)"/><rect class="cls-2" x="33.65" y="31.63" width="16.3" height="44.16"/><rect class="cls-4" x="28.3" y="27.95" width="43.2" height="6.8" rx="3.4" ry="3.4"/><rect class="cls-5" x="49.73" y="27.95" width="22.3" height="6.8" rx="3.4" ry="3.4"/><rect class="cls-5" x="49.73" y="27.95" width="3.4" height="6.8"/><rect class="cls-4" x="33.65" y="27.95" width="16.3" height="6.83"/><rect class="cls-6" x="41.61" y="11.57" width="8.41" height="12.62"/><path class="cls-7" d="M95.67,11.05h-.26V35.22h.26a8.67,8.67,0,0,0,8.67-8.67V19.73A8.67,8.67,0,0,0,95.67,11.05Z" transform="translate(-45.39 -11.05)"/><rect class="cls-7" x="50.02" y="14.19" width="8.94" height="9.99"/><path class="cls-6" d="M95.63,11.05A8.67,8.67,0,0,0,87,19.73v6.83a8.67,8.67,0,0,0,8.64,8.67Z" transform="translate(-45.39 -11.05)"/><rect class="cls-4" x="33.72" y="19.98" width="16.3" height="6.83"/><rect class="cls-4" x="28.37" y="19.98" width="43.2" height="6.8" rx="3.4" ry="3.4"/><rect class="cls-5" x="51.6" y="19.98" width="20.5" height="6.8" rx="3.4" ry="3.4"/><rect class="cls-5" x="50.25" y="19.98" width="8.71" height="6.83"/><path class="cls-8" d="M90.15,56.79v53.36a5.52,5.52,0,1,0,11,0V56.79Z" transform="translate(-45.39 -11.05)"/><path class="cls-9" d="M95.63,56.79H90.15v53.36a5.52,5.52,0,0,0,5.48,5.52Z" transform="translate(-45.39 -11.05)"/><path class="cls-3" d="M91.73,116.72v6.57a3.94,3.94,0,0,0,7.89,0v-6.57Z" transform="translate(-45.39 -11.05)"/><path class="cls-2" d="M95.63,116.72H91.73v6.57a4,4,0,0,0,3.91,3.94Z" transform="translate(-45.39 -11.05)"/><path class="cls-2" d="M90.15,118.28s1.58,1.07,1.58,2.39h1.58V118.3Z" transform="translate(-45.39 -11.05)"/><path class="cls-3" d="M101.19,118.28s-1.58,1.07-1.58,2.39H98V118.3Z" transform="translate(-45.39 -11.05)"/><path class="cls-9" d="M127.27,86.84H51.17v73.64a11.69,11.69,0,0,0,11.69,11.69h64.41A11.69,11.69,0,0,0,139,160.48V86.84Z" transform="translate(-45.39 -11.05)"/><path class="cls-8" d="M127.27,86.84H95.33v85.33h31.94A11.69,11.69,0,0,0,139,160.48V86.84Z" transform="translate(-45.39 -11.05)"/><rect class="cls-4" x="66.68" y="99.99" width="57.31" height="57.31" rx="11.74" ry="11.74" transform="translate(145.28 246.22) rotate(-180)"/><rect class="cls-10" x="88.1" y="108.79" width="13.14" height="39.96" rx="4.03" ry="4.03" transform="translate(143.97 246.49) rotate(-180)"/><rect class="cls-10" x="88.1" y="108.79" width="13.14" height="39.96" rx="4.03" ry="4.03" transform="translate(-79.48 212.39) rotate(-90)"/></svg>