<svg id="Layer_1" data-name="Layer 1" xmlns="http://www.w3.org/2000/svg" viewBox="0 0 613.97 851"><defs><style>.cls-1{fill:#8fb5aa;}.cls-2{fill:#eaefed;}.cls-3{fill:#d2d8d5;}.cls-4{fill:#f8f9f8;}.cls-5{fill:#dce5e1;}.cls-6{fill:#66a9a7;}.cls-7{fill:#5a9693;}.cls-8{fill:#c7595f;}.cls-9{fill:#7a8282;}.cls-10{fill:#637070;}</style></defs><title>iodine</title><path class="cls-1" d="M788.84,215.62H778.49V585.31h10.35c14.42,0,26.12-12.81,26.12-28.61V244.23C815,228.43,803.27,215.62,788.84,215.62Z" transform="translate(-256 -121)"/><path class="cls-1" d="M778.65,132c-.37,0-.73,0-1.1.06V233.17c.37,0,.73.06,1.1.06A36.31,36.31,0,0,0,815,196.92V168.31A36.31,36.31,0,0,0,778.65,132Z" transform="translate(-256 -121)"/><rect class="cls-1" x="521.55" y="70.42" width="37.41" height="41.81"/><rect class="cls-1" x="528.15" y="94.62" width="85.82" height="28.48" rx="14.24" ry="14.24"/><path class="cls-1" d="M762.15,574.3v27.51a16.5,16.5,0,1,0,33,0V574.3Z" transform="translate(-256 -121)"/><rect class="cls-1" x="13.2" y="380.09" width="418.09" height="470.91" rx="55.71" ry="55.71"/><rect class="cls-1" x="222.25" y="380.09" width="209.05" height="470.91" rx="55.52" ry="55.52"/><rect class="cls-1" x="222.25" y="380.09" width="99.02" height="470.91"/><rect class="cls-1" x="154.03" y="283.27" width="136.43" height="167.24"/><path class="cls-1" d="M546.34,476.64s-1.94,26.66,26.54,24.46l-.13,17.6h-44V476.89Z" transform="translate(-256 -121)"/><rect class="cls-1" x="221.34" y="267.87" width="93.33" height="28.48" rx="14.24" ry="14.24"/><rect class="cls-2" y="364.69" width="418.09" height="470.91" rx="55.13" ry="55.13"/><rect class="cls-3" x="209.05" y="364.69" width="209.05" height="470.91" rx="55.72" ry="55.72"/><rect class="cls-3" x="209.05" y="364.69" width="99.02" height="470.91"/><rect class="cls-3" x="140.83" y="267.87" width="136.43" height="167.24"/><path class="cls-2" d="M396.83,461.23s1.94,26.66-26.54,24.46l.13,17.6h44V461.48Z" transform="translate(-256 -121)"/><path class="cls-3" d="M533.13,461.23s-1.94,26.66,26.54,24.46l-.13,17.6h-44V461.48Z" transform="translate(-256 -121)"/><rect class="cls-2" x="140.83" y="267.87" width="68.22" height="184.84"/><rect class="cls-4" x="118.44" y="252.46" width="180.83" height="28.48" rx="14.24" ry="14.24"/><rect class="cls-5" x="208.14" y="252.46" width="93.33" height="28.48" rx="14.24" ry="14.24"/><rect class="cls-5" x="208.14" y="252.46" width="14.24" height="28.48"/><rect class="cls-4" x="140.83" y="252.46" width="68.22" height="28.61"/><path class="cls-6" d="M598.75,573.71H280.21V881.92a48.94,48.94,0,0,0,48.94,48.94h269.6a48.94,48.94,0,0,0,48.94-48.94V573.71Z" transform="translate(-256 -121)"/><path class="cls-7" d="M598.75,573.71H465V930.86h133.7a48.94,48.94,0,0,0,48.94-48.94V573.71Z" transform="translate(-256 -121)"/><rect class="cls-4" x="345.13" y="628.72" width="239.85" height="239.85" rx="11.74" ry="11.74" transform="translate(674.11 1376.3) rotate(-180)"/><rect class="cls-8" x="434.8" y="665.58" width="55.01" height="167.24" rx="4.03" ry="4.03" transform="translate(668.61 1377.4) rotate(-180)"/><path class="cls-2" d="M791,545h8.55V231.87a27.25,27.25,0,0,0-27.25-27.25H754.19a27.25,27.25,0,0,0-27.25,27.25V547a27.25,27.25,0,0,0,27.25,27.25H772.3a27.15,27.15,0,0,0,18.7-7.44Z" transform="translate(-256 -121)"/><rect class="cls-8" x="434.8" y="665.58" width="55.01" height="167.24" rx="4.03" ry="4.03" transform="translate(-542.89 1090.5) rotate(-90)"/><rect class="cls-9" x="470.94" y="48.41" width="35.21" height="52.81"/><path class="cls-3" d="M773.44,204.62H763.09V574.3h10.35c14.42,0,26.12-12.81,26.12-28.61V233.23C799.55,217.43,787.86,204.62,773.44,204.62Z" transform="translate(-256 -121)"/><path class="cls-10" d="M763.25,121c-.37,0-.73,0-1.1.06V222.17c.37,0,.73.06,1.1.06a36.31,36.31,0,0,0,36.31-36.31V157.31A36.31,36.31,0,0,0,763.25,121Z" transform="translate(-256 -121)"/><rect class="cls-10" x="506.15" y="59.41" width="37.41" height="41.81"/><path class="cls-9" d="M763.09,121a36.3,36.3,0,0,0-36.15,36.3v28.61a36.3,36.3,0,0,0,36.15,36.3Z" transform="translate(-256 -121)"/><rect class="cls-4" x="437.93" y="83.62" width="68.22" height="28.61"/><rect class="cls-4" x="415.54" y="83.62" width="180.83" height="28.48" rx="14.24" ry="14.24"/><rect class="cls-5" x="512.75" y="83.62" width="85.82" height="28.48" rx="14.24" ry="14.24"/><rect class="cls-5" x="507.09" y="83.62" width="36.46" height="28.61"/><path class="cls-7" d="M740.14,312.44V535.79a23.11,23.11,0,1,0,46.21,0V312.44Z" transform="translate(-256 -121)"/><path class="cls-6" d="M763.09,312.44H740.14V535.79a23.1,23.1,0,0,0,22.95,23.1Z" transform="translate(-256 -121)"/><path class="cls-3" d="M746.74,563.3v27.51a16.5,16.5,0,1,0,33,0V563.3Z" transform="translate(-256 -121)"/><path class="cls-2" d="M763.09,563.3H746.74v27.51a16.55,16.55,0,0,0,16.35,16.5Z" transform="translate(-256 -121)"/><path class="cls-2" d="M740.14,569.8s6.6,4.47,6.6,10h6.6V569.9Z" transform="translate(-256 -121)"/><path class="cls-3" d="M786.35,569.8s-6.6,4.47-6.6,10h-6.6V569.9Z" transform="translate(-256 -121)"/><path class="cls-1" d="M801.2,581.9s-5.89,2.92-6,9S790,586,790,586l1-6,11-1Z" transform="translate(-256 -121)"/></svg>