<svg id="Layer_1" data-name="Layer 1" xmlns="http://www.w3.org/2000/svg" viewBox="0 0 345.21 952"><defs><style>.cls-1{fill:#74a3a0;}.cls-2{fill:#d78d8f;}.cls-3{fill:#c1747a;}.cls-4{font-size:94.37px;}.cls-4,.cls-6{fill:#fcfcfc;font-family:Montserrat-SemiBold, Montserrat;font-weight:700;}.cls-5{fill:#f8f9f8;}.cls-6{font-size:38px;}.cls-7{fill:#dae5e1;}.cls-8{fill:#8d9392;}.cls-9{fill:#6e7777;}</style></defs><title>oxygen1</title><path class="cls-1" d="M717,71.45H645A17.38,17.38,0,0,0,627.6,88.84V904.71a55.83,55.83,0,0,0-11.15,3.68H599.91a32.07,32.07,0,0,0,27.66-31.65v-549c0-51.86-36.62-95.55-85.28-106.56v-36.3a7.16,7.16,0,0,0-7.14-7.14h-2.57v-16a10,10,0,0,0-9.93-9.93h-6a10,10,0,0,0-9.93,9.93v16h-2.57a7.16,7.16,0,0,0-7.14,7.14v35.71c-50,10-87.94,54.34-87.94,107.15v549a32.07,32.07,0,0,0,32,32h31.73a17.38,17.38,0,0,0,3.34,34.44H585.75a56.29,56.29,0,1,0,76.62-34.9v-802H717a17.38,17.38,0,0,0,0-34.77Z" transform="translate(-389.18 -64)"/><path class="cls-2" d="M498.45,211h0c-60.09,0-109.26,49.17-109.26,109.26v549a32.07,32.07,0,0,0,32,32H575.73a32.07,32.07,0,0,0,32-32v-549C607.71,260.22,558.54,211,498.45,211Z" transform="translate(-389.18 -64)"/><path class="cls-3" d="M498.45,211h0V901.27h77.28a32.07,32.07,0,0,0,32-32v-549C607.71,260.22,558.54,211,498.45,211Z" transform="translate(-389.18 -64)"/><text class="cls-4" transform="translate(9.93 525.25)">0</text><rect class="cls-5" x="97.65" y="80.43" width="25.89" height="38.83" rx="8.95" ry="8.95"/><text class="cls-6" transform="translate(72.2 532.73)">2</text><rect class="cls-7" x="87.94" y="106.31" width="45.3" height="51.78" rx="7.97" ry="7.97"/><ellipse class="cls-7" cx="118.59" cy="96.41" rx="4" ry="5.33"/><rect class="cls-8" x="49.67" y="836.94" width="198.68" height="34.77" rx="17.38" ry="17.38"/><rect class="cls-8" x="189.26" y="482.47" width="871.71" height="34.77" rx="17.38" ry="17.38" transform="translate(735.79 -189.26) rotate(90)"/><rect class="cls-7" x="218.55" width="106.79" height="34.77" rx="17.38" ry="17.38"/><circle class="cls-9" cx="230.51" cy="888.26" r="56.29"/><circle class="cls-5" cx="230.51" cy="888.26" r="26.06"/></svg>