<svg id="Layer_1" data-name="Layer 1" xmlns="http://www.w3.org/2000/svg" viewBox="0 0 139 383.33"><defs><style>.cls-1{fill:#8fb5aa;}.cls-2{fill:#d78d8f;}.cls-3{fill:#c1747a;}.cls-4{font-size:38px;font-family:Montserrat-Regular, Montserrat;}.cls-4,.cls-6{fill:#fcfcfc;}.cls-5{fill:#f8f9f8;}.cls-6{font-size:13px;font-family:Montserrat-SemiBold, Montserrat;font-weight:700;}.cls-7{fill:#dae5e1;}.cls-8{fill:#8d9392;}.cls-9{fill:#6e7777;}</style></defs><title>oxygen</title><path class="cls-1" d="M213,61H184a7,7,0,0,0-7,7V396.52a22.48,22.48,0,0,0-4.49,1.48h-6.66A12.91,12.91,0,0,0,177,385.26V164.21a44.16,44.16,0,0,0-34.34-42.91V106.68a2.88,2.88,0,0,0-2.88-2.88h-1V97.38a4,4,0,0,0-4-4h-2.42a4,4,0,0,0-4,4v6.42h-1a2.88,2.88,0,0,0-2.88,2.88v14.38A44.16,44.16,0,0,0,89,164.21V385.26a12.91,12.91,0,0,0,12.88,12.88h12.78A7,7,0,0,0,116,412h44.15A22.67,22.67,0,1,0,191,397.95V75h22a7,7,0,0,0,0-14Z" transform="translate(-81 -58)"/><path class="cls-2" d="M125,117.21h0a44.12,44.12,0,0,0-44,44V382.26a12.91,12.91,0,0,0,12.88,12.88h62.24A12.91,12.91,0,0,0,169,382.26V161.21A44.12,44.12,0,0,0,125,117.21Z" transform="translate(-81 -58)"/><path class="cls-3" d="M125,117.21h0V395.13h31.12A12.91,12.91,0,0,0,169,382.26V161.21A44.12,44.12,0,0,0,125,117.21Z" transform="translate(-81 -58)"/><text class="cls-4" transform="translate(4 211.49)">0</text><rect class="cls-5" x="39.32" y="32.38" width="10.42" height="15.64" rx="4" ry="4"/><text class="cls-6" transform="translate(28.67 213.2)">2</text><rect class="cls-7" x="35.41" y="42.81" width="18.24" height="20.85" rx="2.88" ry="2.88"/><ellipse class="cls-7" cx="47.75" cy="38.82" rx="1.61" ry="2.15"/><rect class="cls-8" x="20" y="337" width="80" height="14" rx="7" ry="7"/><rect class="cls-8" x="0.5" y="226.5" width="351" height="14" rx="7" ry="7" transform="translate(328.5 -0.5) rotate(90)"/><rect class="cls-7" x="88" width="43" height="14" rx="7" ry="7"/><circle class="cls-9" cx="92.81" cy="357.66" r="22.66"/><circle class="cls-5" cx="92.81" cy="357.66" r="10.49"/></svg>