<svg id="Layer_1" data-name="Layer 1" xmlns="http://www.w3.org/2000/svg" viewBox="0 0 145.61 53.8"><defs><style>.cls-1{fill:#8fb5aa;}.cls-10,.cls-11,.cls-12,.cls-13,.cls-14,.cls-2,.cls-9{fill:none;stroke-linecap:round;}.cls-2{stroke:#8fb5aa;}.cls-14,.cls-2{stroke-miterlimit:10;stroke-width:1.67px;}.cls-3{fill:#f8f9f8;}.cls-4{fill:#dce5e1;}.cls-5{fill:#eaefed;}.cls-6{fill:#d2d8d5;}.cls-7{fill:#c7595f;}.cls-8{fill:#be3d46;}.cls-10,.cls-11,.cls-9{stroke:#d2d8d5;}.cls-10,.cls-11,.cls-12,.cls-13,.cls-9{stroke-linejoin:round;}.cls-13,.cls-9{stroke-width:0.83px;}.cls-10,.cls-12{stroke-width:0.3px;}.cls-11{stroke-width:0.91px;}.cls-12,.cls-13{stroke:#be3d46;}.cls-14{stroke:#eaefed;}.cls-15{fill:#7a8282;}.cls-16{fill:#637070;}</style></defs><title>syringe</title><path class="cls-1" d="M36.84,113.88l-1.38,9.62a2.7,2.7,0,1,1-5.35-.77L31.8,111a2.7,2.7,0,1,1,5.35.77l-.08.57.47-3.25,21.92,3.14L58.75,117Z" transform="translate(-29.19 -85.12)"/><path class="cls-1" d="M152.15,131.57a1,1,0,0,1-.88-1.18l0-.11-2-.29h0c-3.25-.37-3.46,3.08-3.46,3.08h0a7.66,7.66,0,0,1-8.53,5.76L68.57,129a7.64,7.64,0,0,1-5.52-3.72L61.44,136.5a2.7,2.7,0,1,1-5.35-.77l3-20.79a2.7,2.7,0,0,1,5.35.77l0,.13a7.64,7.64,0,0,1,6.34-2l68.68,9.84a7.65,7.65,0,0,1,5.87,4.38l1.34-.64.38-2.65,5,.71.18-1.28a1,1,0,0,1,2.07.3l-.89,6.2A1,1,0,0,1,152.15,131.57Z" transform="translate(-29.19 -85.12)"/><line class="cls-2" x1="124.53" y1="39.93" x2="144.77" y2="42.83"/><rect class="cls-3" x="16.67" y="104.86" width="34.29" height="5.4" rx="2.7" ry="2.7" transform="translate(-106.49 41.6) rotate(-82.33)"/><rect class="cls-4" x="26.31" y="96.43" width="17.28" height="5.4" rx="2.7" ry="2.7" transform="translate(-97.15 35.42) rotate(-82.33)"/><rect class="cls-4" x="32.63" y="103.66" width="2.7" height="5.4" transform="translate(-105.15 40.72) rotate(-82.33)"/><rect class="cls-5" x="42.74" y="98.33" width="9.45" height="22.14" transform="translate(-96.48 56.72) rotate(-82.33)"/><rect class="cls-6" x="45.34" y="96.05" width="4.86" height="22.14" transform="translate(-93.96 55.05) rotate(-82.33)"/><rect class="cls-5" x="89.26" y="74.51" width="29.8" height="84.71" rx="7.72" ry="7.72" transform="translate(-54.75 119.38) rotate(-82.33)"/><path class="cls-6" d="M140.55,106.6,71.78,97.34a7.66,7.66,0,0,0-2,15.19l68.77,9.26a7.66,7.66,0,0,0,2-15.19Z" transform="translate(-29.19 -85.12)"/><rect class="cls-3" x="34.96" y="108.41" width="52.38" height="5.4" rx="2.7" ry="2.7" transform="translate(-86.31 71.77) rotate(-82.33)"/><rect class="cls-4" x="49.69" y="95.53" width="26.4" height="5.4" rx="2.7" ry="2.7" transform="translate(-72.04 62.33) rotate(-82.33)"/><rect class="cls-4" x="59.33" y="106.63" width="4.12" height="5.4" transform="translate(-84.34 70.47) rotate(-82.33)"/><rect class="cls-7" x="103.65" y="90.36" width="23.79" height="55.92" rx="6.38" ry="6.38" transform="translate(-46.32 131.92) rotate(-82.33)"/><rect class="cls-7" x="97.24" y="94.71" width="23.79" height="45.49" transform="translate(-51.02 124.82) rotate(-82.33)"/><rect class="cls-6" x="101.79" y="72.14" width="7.27" height="83.07" transform="translate(-50.49 117.86) rotate(-82.33)"/><rect class="cls-8" x="110.27" y="84.57" width="12.1" height="55.92" rx="6.05" ry="6.05" transform="translate(-39.9 127.67) rotate(-82.33)"/><rect class="cls-8" x="113.02" y="87.9" width="5.71" height="55.92" transform="translate(-43.6 130.12) rotate(-82.33)"/><line class="cls-9" x1="37.67" y1="38.24" x2="38.79" y2="29.95"/><line class="cls-10" x1="41.1" y1="38.82" x2="41.51" y2="35.83"/><line class="cls-10" x1="44.7" y1="39.31" x2="45.11" y2="36.31"/><line class="cls-10" x1="48.3" y1="39.79" x2="48.7" y2="36.79"/><line class="cls-10" x1="51.9" y1="40.28" x2="52.3" y2="37.28"/><line class="cls-11" x1="55.66" y1="40.66" x2="56.07" y2="37.66"/><line class="cls-12" x1="59.39" y1="41.29" x2="59.8" y2="38.29"/><line class="cls-12" x1="62.99" y1="41.77" x2="63.4" y2="38.77"/><line class="cls-12" x1="66.59" y1="42.25" x2="66.99" y2="39.26"/><line class="cls-12" x1="70.19" y1="42.74" x2="70.59" y2="39.74"/><line class="cls-13" x1="73.8" y1="43.1" x2="74.92" y2="34.81"/><line class="cls-12" x1="77.38" y1="43.71" x2="77.79" y2="40.71"/><line class="cls-12" x1="80.98" y1="44.19" x2="81.39" y2="41.19"/><line class="cls-12" x1="84.58" y1="44.68" x2="84.98" y2="41.68"/><line class="cls-12" x1="88.18" y1="45.16" x2="88.58" y2="42.16"/><line class="cls-13" x1="91.64" y1="45.5" x2="92.76" y2="37.21"/><line class="cls-12" x1="95.37" y1="46.13" x2="95.78" y2="43.13"/><line class="cls-12" x1="98.97" y1="46.61" x2="99.38" y2="43.61"/><line class="cls-12" x1="102.57" y1="47.1" x2="102.97" y2="44.1"/><line class="cls-12" x1="106.17" y1="47.58" x2="106.57" y2="44.58"/><rect class="cls-5" x="144.49" y="119.97" width="9.45" height="6.26" transform="translate(-21.87 169.43) rotate(-82.33)"/><rect class="cls-6" x="147.09" y="117.69" width="4.86" height="6.26" transform="translate(-19.35 167.77) rotate(-82.33)"/><path class="cls-5" d="M145.15,129.84s.24-2.74,2.75-2.15,1.25-2.53,1.25-2.53l-5.49.1.27,4.25Z" transform="translate(-29.19 -85.12)"/><path class="cls-6" d="M147.22,114.48s-.74,3.38,2.49,3.91-2.12,2.76-2.12,2.76l-2.26-2,.72-5.38Z" transform="translate(-29.19 -85.12)"/><line class="cls-14" x1="123.96" y1="38.46" x2="144.22" y2="41.19"/><rect class="cls-15" x="146.27" y="122.41" width="11.68" height="2.09" rx="1.04" ry="1.04" transform="translate(-19.71 172.61) rotate(-82.33)"/><rect class="cls-16" x="149.63" y="119.47" width="5.76" height="2.09" rx="1.04" ry="1.04" transform="translate(-16.46 170.46) rotate(-82.33)"/><rect class="cls-8" x="102.41" y="90.19" width="12.1" height="42.56" transform="translate(-45.67 118.97) rotate(-82.33)"/><rect class="cls-16" x="149.99" y="120.17" width="4.86" height="2.09" transform="translate(-17.23 170.97) rotate(-82.33)"/><rect class="cls-15" x="72.99" y="112.29" width="27.12" height="4.25" rx="2.12" ry="2.12" transform="translate(-67.57 99.81) rotate(-82.33)"/><rect class="cls-16" x="80.79" y="105.47" width="13.36" height="4.25" rx="2.12" ry="2.12" transform="translate(-60.02 94.81) rotate(-82.33)"/><rect class="cls-16" x="81.61" y="107.09" width="11.28" height="4.25" transform="translate(-61.82 96) rotate(-82.33)"/></svg>