<svg id="Layer_1" data-name="Layer 1" xmlns="http://www.w3.org/2000/svg" viewBox="0 0 146.56 32.56"><defs><style>.cls-1{fill:#8fb5aa;}.cls-2{fill:#f8f9f8;}.cls-3{fill:#dce5e1;}.cls-4,.cls-5,.cls-7,.cls-8{fill:none;stroke-linecap:round;stroke-linejoin:round;}.cls-4{stroke:#c6cec6;}.cls-4,.cls-5{stroke-width:2.89px;}.cls-5,.cls-7,.cls-8{stroke:#c7595f;}.cls-6{fill:#c7595f;}.cls-7{stroke-width:1.24px;}.cls-8{stroke-width:0.41px;}</style></defs><title>thermometer</title><path class="cls-1" d="M48.41,60.26l108.93,5a8.25,8.25,0,0,0,.76-16.48l-109-5a14.64,14.64,0,1,0-.69,16.49Z" transform="translate(-19.41 -33.59)"/><path class="cls-2" d="M45.8,57l108.93,5a8.25,8.25,0,0,0,.76-16.48l-109-5A14.64,14.64,0,1,0,45.8,57Z" transform="translate(-19.41 -33.59)"/><path class="cls-3" d="M45.8,57l108.93,5a8.25,8.25,0,0,0,8.62-7.86L19.43,47.54v.05A14.65,14.65,0,0,0,45.8,57Z" transform="translate(-19.41 -33.59)"/><line class="cls-4" x1="135.49" y1="20.42" x2="94.69" y2="18.53"/><line class="cls-5" x1="101.69" y1="18.87" x2="14.54" y2="14.64"/><circle class="cls-6" cx="34.06" cy="48.16" r="6.6" transform="matrix(0.05, -1, 1, 0.05, -35.03, 46.38)"/><line class="cls-7" x1="128.84" y1="12.23" x2="128.65" y2="16.35"/><line class="cls-8" x1="124.11" y1="11.84" x2="123.92" y2="15.96"/><line class="cls-8" x1="119.17" y1="11.61" x2="118.98" y2="15.73"/><line class="cls-8" x1="114.22" y1="11.38" x2="114.03" y2="15.51"/><line class="cls-8" x1="109.28" y1="11.16" x2="109.09" y2="15.28"/><line class="cls-7" x1="104.12" y1="11.08" x2="103.93" y2="15.2"/><line class="cls-8" x1="98.98" y1="10.68" x2="98.78" y2="14.8"/><line class="cls-8" x1="94.03" y1="10.45" x2="93.84" y2="14.57"/><line class="cls-8" x1="89.08" y1="10.22" x2="88.89" y2="14.34"/><line class="cls-8" x1="84.14" y1="9.99" x2="83.95" y2="14.12"/><line class="cls-7" x1="79.19" y1="9.93" x2="79" y2="14.05"/><line class="cls-8" x1="74.25" y1="9.54" x2="74.06" y2="13.66"/><line class="cls-8" x1="69.3" y1="9.31" x2="69.11" y2="13.43"/><line class="cls-8" x1="64.36" y1="9.08" x2="64.17" y2="13.2"/><line class="cls-8" x1="59.41" y1="8.85" x2="59.22" y2="12.97"/><line class="cls-7" x1="54.67" y1="8.8" x2="54.48" y2="12.92"/><line class="cls-8" x1="49.52" y1="8.39" x2="49.33" y2="12.51"/><line class="cls-8" x1="44.58" y1="8.17" x2="44.39" y2="12.29"/><line class="cls-8" x1="39.63" y1="7.94" x2="39.44" y2="12.06"/><line class="cls-8" x1="34.69" y1="7.71" x2="34.5" y2="11.83"/><line class="cls-7" x1="29.94" y1="7.65" x2="29.75" y2="11.77"/></svg>